<svg xmlns="http://www.w3.org/2000/svg" xmlns:xlink="http://www.w3.org/1999/xlink">
  <rect fill="#105EAB" width="64.17" height="40.52"></rect>
  <path fill="#FFF" d="M26.985 40.512L64.8 2.204v-.383h-.19L26.419 40.512zM3.144 40.512L5.7 1.821h-.403L2.741 40.512zM5.188 40.512l5.521-38.691h-.408L4.783 40.512zM7.377 40.512l8.635-38.691h-.408L6.963 40.512zM9.779 40.512L22.105 1.821h-.415L9.36 40.512zM12.045 40.512L27.881 1.821h-.435L11.609 40.512zM14.652 40.512L34.459 1.821h-.442L14.199 40.512zM44.356 1.821h-.481L18.231 40.512h.48zM53.5 1.821h-.505L21.819 40.512h.515zM64.8 16.461v-.508L33.887 40.512h.637zM64.8 27.103v-.47L42.591 40.512h.76zM64.8 37.145v-.446l-8.172 3.813h.948z"></path>
  <path fill="#FFF" d="M19.797 25.082c-.794.761-2.79 1.58-4.255 1.566-4.264-.004-6.255-3.628-6.291-9.162.029-5.237 2.178-8.569 5.871-8.577 2.64.003 3.924 1.535 4.625 2.448l.772 1.028v-4.76l-.247-.115c-1.522-.708-3.454-1.039-5.216-1.042-6.629.015-11.687 4.767-11.698 11.475.011 6.878 4.792 11.201 11.64 11.21h.036c3.4 0 5.144-1.025 6.064-1.73l.273-.207-1.135-2.546-.439.412zM38.372 8.943c-2.218-1.627-4.996-2.109-7.366-2.109H22.91v21.93h8.623c4.183-.01 10.645-2.665 10.655-11.025.008-4.378-1.591-7.169-3.816-8.796zM28.235 26.22V9.311c3.915.104 8.083.582 8.157 8.517-.063 7.706-4.327 8.287-8.157 8.392zm32.421-1.55l-.439.412c-.794.763-2.784 1.58-4.248 1.566-4.263 0-6.256-3.628-6.292-9.16.028-5.242 2.181-8.573 5.879-8.58 2.635.003 3.922 1.536 4.61 2.448l.776 1.042V7.625l-.247-.115c-1.515-.709-3.447-1.038-5.216-1.041-6.627.014-11.674 4.765-11.684 11.474.01 6.88 4.78 11.198 11.634 11.21h.052c3.389 0 5.126-1.027 6.047-1.73l.273-.207-1.145-2.546z"></path>
</svg>
